<svg width="128" height="128" viewBox="0 0 128 128" fill="none" xmlns="http://www.w3.org/2000/svg">
<path d="M0 0H128V128H0V0Z" fill="#EFEFFF"/>
<path d="M43.5321 97V30.0909H69.9299C75.0047 30.0909 79.3281 31.0601 82.9 32.9986C86.472 34.9152 89.1945 37.5833 91.0676 41.0028C92.9625 44.4006 93.91 48.321 93.91 52.7642C93.91 57.2074 92.9516 61.1278 91.035 64.5256C89.1183 67.9233 86.3413 70.5696 82.704 72.4645C79.0885 74.3594 74.7106 75.3068 69.5705 75.3068H52.7452V63.9702H67.2836C70.0061 63.9702 72.2495 63.5019 74.0137 62.5653C75.7997 61.607 77.1283 60.2893 77.9995 58.6122C78.8925 56.9134 79.339 54.964 79.339 52.7642C79.339 50.5426 78.8925 48.6042 77.9995 46.9489C77.1283 45.2718 75.7997 43.9758 74.0137 43.0611C72.2277 42.1245 69.9625 41.6562 67.2182 41.6562H57.6784V97H43.5321Z" fill="#070616"/>
</svg>
