<svg width="128" height="128" viewBox="0 0 128 128" fill="none" xmlns="http://www.w3.org/2000/svg">
<path d="M0 64C0 28.6538 28.6538 0 64 0V0C99.3462 0 128 28.6538 128 64V64C128 99.3462 99.3462 128 64 128V128C28.6538 128 0 99.3462 0 64V64Z" fill="#5E5BE2"/>
<path d="M88.6897 54.656C88.6897 58.0907 87.8617 61.3107 86.2057 64.316C84.611 67.3213 82.0657 69.744 78.5697 71.584C75.135 73.424 70.7803 74.344 65.5057 74.344H54.7417V99H41.8617V34.784H65.5057C70.4737 34.784 74.7057 35.6427 78.2017 37.36C81.6977 39.0773 84.3043 41.4387 86.0217 44.444C87.8003 47.4493 88.6897 50.8533 88.6897 54.656ZM64.9537 63.948C68.511 63.948 71.1483 63.1507 72.8657 61.556C74.583 59.9 75.4417 57.6 75.4417 54.656C75.4417 48.4 71.9457 45.272 64.9537 45.272H54.7417V63.948H64.9537Z" fill="white"/>
</svg>
