<svg width="128" height="128" viewBox="0 0 128 128" fill="none" xmlns="http://www.w3.org/2000/svg">
<path d="M0 64C0 28.6538 28.6538 0 64 0V0C99.3462 0 128 28.6538 128 64V64C128 99.3462 99.3462 128 64 128V128C28.6538 128 0 99.3462 0 64V64Z" fill="url(#paint0_linear_101_2)"/>
<path d="M93.6897 54.656C93.6897 58.0907 92.8617 61.3107 91.2057 64.316C89.611 67.3213 87.0657 69.744 83.5697 71.584C80.135 73.424 75.7803 74.344 70.5057 74.344H59.7417V99H46.8617V34.784H70.5057C75.4737 34.784 79.7057 35.6427 83.2017 37.36C86.6977 39.0773 89.3043 41.4387 91.0217 44.444C92.8003 47.4493 93.6897 50.8533 93.6897 54.656ZM69.9537 63.948C73.511 63.948 76.1483 63.1507 77.8657 61.556C79.583 59.9 80.4417 57.6 80.4417 54.656C80.4417 48.4 76.9457 45.272 69.9537 45.272H59.7417V63.948H69.9537Z" fill="white"/>
<defs>
<linearGradient id="paint0_linear_101_2" x1="32.5" y1="10.5" x2="100" y2="111.5" gradientUnits="userSpaceOnUse">
<stop stop-color="#6461E8"/>
<stop offset="1" stop-color="#C23535" stop-opacity="0.63"/>
</linearGradient>
</defs>
</svg>
